<mxfile host="app.diagrams.net" modified="2024-03-07T05:00:50.692Z" agent="Mozilla/5.0 (Windows NT 10.0; Win64; x64) AppleWebKit/537.36 (KHTML, like Gecko) Chrome/122.0.0.0 Safari/537.36 Edg/122.0.0.0" etag="xGyBGJTW-htVuuhjb_4x" version="24.0.2" type="github" pages="2">
  <diagram id="gefiLhxsp6uJe3kQy--f" name="list property">
    <mxGraphModel dx="1666" dy="785" grid="1" gridSize="10" guides="1" tooltips="1" connect="1" arrows="1" fold="1" page="1" pageScale="1" pageWidth="827" pageHeight="1169" math="0" shadow="0">
      <root>
        <mxCell id="0" />
        <mxCell id="1" parent="0" />
        <mxCell id="QPpBnfvkqHIOZeSmNuLf-6" style="edgeStyle=orthogonalEdgeStyle;rounded=0;orthogonalLoop=1;jettySize=auto;html=1;" parent="1" source="QPpBnfvkqHIOZeSmNuLf-1" target="QPpBnfvkqHIOZeSmNuLf-3" edge="1">
          <mxGeometry relative="1" as="geometry" />
        </mxCell>
        <mxCell id="QPpBnfvkqHIOZeSmNuLf-7" style="edgeStyle=orthogonalEdgeStyle;rounded=0;orthogonalLoop=1;jettySize=auto;html=1;" parent="1" source="QPpBnfvkqHIOZeSmNuLf-1" target="QPpBnfvkqHIOZeSmNuLf-5" edge="1">
          <mxGeometry relative="1" as="geometry" />
        </mxCell>
        <mxCell id="QPpBnfvkqHIOZeSmNuLf-1" value="Estate Agent" style="sketch=0;aspect=fixed;pointerEvents=1;shadow=0;dashed=0;html=1;strokeColor=none;labelPosition=center;verticalLabelPosition=bottom;verticalAlign=top;align=center;fillColor=#00188D;shape=mxgraph.azure.laptop" parent="1" vertex="1">
          <mxGeometry x="499" y="34" width="50" height="30" as="geometry" />
        </mxCell>
        <mxCell id="QPpBnfvkqHIOZeSmNuLf-3" value="CDN" style="ellipse;shape=cloud;whiteSpace=wrap;html=1;align=center;" parent="1" vertex="1">
          <mxGeometry x="100" y="19" width="100" height="60" as="geometry" />
        </mxCell>
        <mxCell id="QPpBnfvkqHIOZeSmNuLf-5" value="" style="image;aspect=fixed;html=1;points=[];align=center;fontSize=12;image=img/lib/azure2/networking/DNS_Zones.svg;" parent="1" vertex="1">
          <mxGeometry x="690" y="17" width="64" height="64" as="geometry" />
        </mxCell>
        <mxCell id="QPpBnfvkqHIOZeSmNuLf-17" style="edgeStyle=orthogonalEdgeStyle;rounded=0;orthogonalLoop=1;jettySize=auto;html=1;" parent="1" source="QPpBnfvkqHIOZeSmNuLf-22" target="QPpBnfvkqHIOZeSmNuLf-15" edge="1">
          <mxGeometry relative="1" as="geometry">
            <mxPoint x="524" y="199" as="sourcePoint" />
          </mxGeometry>
        </mxCell>
        <mxCell id="QPpBnfvkqHIOZeSmNuLf-13" style="edgeStyle=orthogonalEdgeStyle;rounded=0;orthogonalLoop=1;jettySize=auto;html=1;" parent="1" source="QPpBnfvkqHIOZeSmNuLf-1" target="QPpBnfvkqHIOZeSmNuLf-22" edge="1">
          <mxGeometry relative="1" as="geometry">
            <mxPoint x="524" y="149" as="targetPoint" />
          </mxGeometry>
        </mxCell>
        <mxCell id="QPpBnfvkqHIOZeSmNuLf-21" style="edgeStyle=orthogonalEdgeStyle;rounded=0;orthogonalLoop=1;jettySize=auto;html=1;" parent="1" source="QPpBnfvkqHIOZeSmNuLf-15" target="QPpBnfvkqHIOZeSmNuLf-20" edge="1">
          <mxGeometry relative="1" as="geometry" />
        </mxCell>
        <mxCell id="QPpBnfvkqHIOZeSmNuLf-15" value="Management&lt;br&gt;API" style="sketch=0;aspect=fixed;pointerEvents=1;shadow=0;dashed=0;html=1;strokeColor=none;labelPosition=center;verticalLabelPosition=bottom;verticalAlign=top;align=center;fillColor=#00188D;shape=mxgraph.mscae.enterprise.cluster_server" parent="1" vertex="1">
          <mxGeometry x="504" y="279" width="40" height="50" as="geometry" />
        </mxCell>
        <mxCell id="QPpBnfvkqHIOZeSmNuLf-20" value="Uploaded&lt;br&gt;Images" style="sketch=0;outlineConnect=0;fontColor=#232F3E;gradientColor=none;strokeColor=#232F3E;fillColor=#ffffff;dashed=0;verticalLabelPosition=bottom;verticalAlign=top;align=center;html=1;fontSize=12;fontStyle=0;aspect=fixed;shape=mxgraph.aws4.resourceIcon;resIcon=mxgraph.aws4.bucket_with_objects;" parent="1" vertex="1">
          <mxGeometry x="494" y="679" width="60" height="60" as="geometry" />
        </mxCell>
        <mxCell id="QPpBnfvkqHIOZeSmNuLf-22" value="Load Balancer" style="sketch=0;outlineConnect=0;fontColor=#232F3E;gradientColor=none;strokeColor=#ffffff;fillColor=#232F3E;dashed=0;verticalLabelPosition=middle;verticalAlign=bottom;align=center;html=1;whiteSpace=wrap;fontSize=10;fontStyle=1;spacing=3;shape=mxgraph.aws4.productIcon;prIcon=mxgraph.aws4.application_load_balancer;" parent="1" vertex="1">
          <mxGeometry x="484" y="129" width="80" height="110" as="geometry" />
        </mxCell>
        <mxCell id="59krLZsqECckqpki7Z-y-2" value="received properties" style="sketch=0;aspect=fixed;pointerEvents=1;shadow=0;dashed=0;html=1;strokeColor=none;labelPosition=center;verticalLabelPosition=bottom;verticalAlign=top;align=center;fillColor=#00188D;shape=mxgraph.azure.queue_generic" parent="1" vertex="1">
          <mxGeometry x="270" y="286.7" width="121" height="34.6" as="geometry" />
        </mxCell>
        <mxCell id="59krLZsqECckqpki7Z-y-4" style="edgeStyle=orthogonalEdgeStyle;rounded=0;orthogonalLoop=1;jettySize=auto;html=1;entryX=1;entryY=0.51;entryDx=0;entryDy=0;entryPerimeter=0;" parent="1" source="QPpBnfvkqHIOZeSmNuLf-15" target="59krLZsqECckqpki7Z-y-2" edge="1">
          <mxGeometry relative="1" as="geometry" />
        </mxCell>
        <mxCell id="59krLZsqECckqpki7Z-y-10" style="edgeStyle=orthogonalEdgeStyle;rounded=0;orthogonalLoop=1;jettySize=auto;html=1;" parent="1" source="59krLZsqECckqpki7Z-y-7" target="59krLZsqECckqpki7Z-y-2" edge="1">
          <mxGeometry relative="1" as="geometry" />
        </mxCell>
        <mxCell id="59krLZsqECckqpki7Z-y-7" value="Property Data Validation Service" style="rounded=0;whiteSpace=wrap;html=1;" parent="1" vertex="1">
          <mxGeometry x="270" y="419" width="120" height="60" as="geometry" />
        </mxCell>
        <mxCell id="59krLZsqECckqpki7Z-y-13" value="validated properties" style="sketch=0;aspect=fixed;pointerEvents=1;shadow=0;dashed=0;html=1;strokeColor=none;labelPosition=center;verticalLabelPosition=bottom;verticalAlign=top;align=center;fillColor=#00188D;shape=mxgraph.azure.queue_generic" parent="1" vertex="1">
          <mxGeometry x="268" y="564" width="122" height="36.6" as="geometry" />
        </mxCell>
        <mxCell id="59krLZsqECckqpki7Z-y-14" style="rounded=0;orthogonalLoop=1;jettySize=auto;html=1;entryX=0.5;entryY=0;entryDx=0;entryDy=0;entryPerimeter=0;" parent="1" source="59krLZsqECckqpki7Z-y-7" target="59krLZsqECckqpki7Z-y-13" edge="1">
          <mxGeometry relative="1" as="geometry" />
        </mxCell>
        <mxCell id="59krLZsqECckqpki7Z-y-32" style="edgeStyle=orthogonalEdgeStyle;rounded=0;orthogonalLoop=1;jettySize=auto;html=1;" parent="1" source="59krLZsqECckqpki7Z-y-15" target="QPpBnfvkqHIOZeSmNuLf-3" edge="1">
          <mxGeometry relative="1" as="geometry" />
        </mxCell>
        <mxCell id="59krLZsqECckqpki7Z-y-15" value="processed&lt;br&gt;images" style="sketch=0;outlineConnect=0;fontColor=#232F3E;gradientColor=none;strokeColor=#232F3E;fillColor=#ffffff;dashed=0;verticalLabelPosition=bottom;verticalAlign=top;align=center;html=1;fontSize=12;fontStyle=0;aspect=fixed;shape=mxgraph.aws4.resourceIcon;resIcon=mxgraph.aws4.bucket_with_objects;" parent="1" vertex="1">
          <mxGeometry x="120" y="580" width="60" height="60" as="geometry" />
        </mxCell>
        <mxCell id="59krLZsqECckqpki7Z-y-20" style="rounded=0;orthogonalLoop=1;jettySize=auto;html=1;" parent="1" source="59krLZsqECckqpki7Z-y-17" target="QPpBnfvkqHIOZeSmNuLf-20" edge="1">
          <mxGeometry relative="1" as="geometry" />
        </mxCell>
        <mxCell id="59krLZsqECckqpki7Z-y-23" style="rounded=0;orthogonalLoop=1;jettySize=auto;html=1;exitX=0;exitY=0.25;exitDx=0;exitDy=0;" parent="1" source="59krLZsqECckqpki7Z-y-17" target="59krLZsqECckqpki7Z-y-15" edge="1">
          <mxGeometry relative="1" as="geometry" />
        </mxCell>
        <mxCell id="Dm5knrUofMF7wtEDtV-R-2" style="rounded=0;orthogonalLoop=1;jettySize=auto;html=1;" parent="1" source="59krLZsqECckqpki7Z-y-17" target="Dm5knrUofMF7wtEDtV-R-1" edge="1">
          <mxGeometry relative="1" as="geometry" />
        </mxCell>
        <mxCell id="59krLZsqECckqpki7Z-y-17" value="Image Processor" style="rounded=0;whiteSpace=wrap;html=1;" parent="1" vertex="1">
          <mxGeometry x="269" y="679" width="120" height="60" as="geometry" />
        </mxCell>
        <mxCell id="59krLZsqECckqpki7Z-y-18" style="edgeStyle=orthogonalEdgeStyle;rounded=0;orthogonalLoop=1;jettySize=auto;html=1;entryX=0.5;entryY=1;entryDx=0;entryDy=0;entryPerimeter=0;" parent="1" source="59krLZsqECckqpki7Z-y-17" target="59krLZsqECckqpki7Z-y-13" edge="1">
          <mxGeometry relative="1" as="geometry" />
        </mxCell>
        <mxCell id="59krLZsqECckqpki7Z-y-21" value="completion queue" style="sketch=0;aspect=fixed;pointerEvents=1;shadow=0;dashed=0;html=1;strokeColor=none;labelPosition=center;verticalLabelPosition=bottom;verticalAlign=top;align=center;fillColor=#00188D;shape=mxgraph.azure.queue_generic" parent="1" vertex="1">
          <mxGeometry x="268" y="819" width="122" height="36.6" as="geometry" />
        </mxCell>
        <mxCell id="59krLZsqECckqpki7Z-y-22" style="edgeStyle=orthogonalEdgeStyle;rounded=0;orthogonalLoop=1;jettySize=auto;html=1;entryX=0.5;entryY=0;entryDx=0;entryDy=0;entryPerimeter=0;" parent="1" source="59krLZsqECckqpki7Z-y-17" target="59krLZsqECckqpki7Z-y-21" edge="1">
          <mxGeometry relative="1" as="geometry" />
        </mxCell>
        <mxCell id="59krLZsqECckqpki7Z-y-25" value="Property&lt;br&gt;Cache&lt;br&gt;Servers" style="sketch=0;outlineConnect=0;fontColor=#232F3E;gradientColor=none;strokeColor=#232F3E;fillColor=#ffffff;dashed=0;verticalLabelPosition=bottom;verticalAlign=top;align=center;html=1;fontSize=12;fontStyle=0;aspect=fixed;shape=mxgraph.aws4.resourceIcon;resIcon=mxgraph.aws4.cache_node;" parent="1" vertex="1">
          <mxGeometry x="494" y="929" width="60" height="60" as="geometry" />
        </mxCell>
        <mxCell id="59krLZsqECckqpki7Z-y-28" style="edgeStyle=orthogonalEdgeStyle;rounded=0;orthogonalLoop=1;jettySize=auto;html=1;" parent="1" source="59krLZsqECckqpki7Z-y-26" target="59krLZsqECckqpki7Z-y-25" edge="1">
          <mxGeometry relative="1" as="geometry" />
        </mxCell>
        <mxCell id="59krLZsqECckqpki7Z-y-29" style="edgeStyle=orthogonalEdgeStyle;rounded=0;orthogonalLoop=1;jettySize=auto;html=1;" parent="1" source="59krLZsqECckqpki7Z-y-26" target="59krLZsqECckqpki7Z-y-30" edge="1">
          <mxGeometry relative="1" as="geometry">
            <mxPoint x="329" y="1069" as="targetPoint" />
          </mxGeometry>
        </mxCell>
        <mxCell id="59krLZsqECckqpki7Z-y-38" style="edgeStyle=orthogonalEdgeStyle;rounded=0;orthogonalLoop=1;jettySize=auto;html=1;" parent="1" source="59krLZsqECckqpki7Z-y-26" target="59krLZsqECckqpki7Z-y-37" edge="1">
          <mxGeometry relative="1" as="geometry" />
        </mxCell>
        <mxCell id="59krLZsqECckqpki7Z-y-26" value="Completion Handler" style="rounded=0;whiteSpace=wrap;html=1;" parent="1" vertex="1">
          <mxGeometry x="269" y="929" width="120" height="60" as="geometry" />
        </mxCell>
        <mxCell id="59krLZsqECckqpki7Z-y-27" style="edgeStyle=orthogonalEdgeStyle;rounded=0;orthogonalLoop=1;jettySize=auto;html=1;entryX=0.5;entryY=1;entryDx=0;entryDy=0;entryPerimeter=0;" parent="1" source="59krLZsqECckqpki7Z-y-26" target="59krLZsqECckqpki7Z-y-21" edge="1">
          <mxGeometry relative="1" as="geometry" />
        </mxCell>
        <mxCell id="59krLZsqECckqpki7Z-y-30" value="Property&lt;br&gt;Databases" style="sketch=0;shadow=0;dashed=0;html=1;strokeColor=none;fillColor=#505050;labelPosition=center;verticalLabelPosition=bottom;verticalAlign=top;outlineConnect=0;align=center;shape=mxgraph.office.databases.database_availability_group;" parent="1" vertex="1">
          <mxGeometry x="299.5" y="1060" width="59" height="59" as="geometry" />
        </mxCell>
        <mxCell id="59krLZsqECckqpki7Z-y-37" value="Google Maps&lt;br&gt;Service" style="image;sketch=0;aspect=fixed;html=1;points=[];align=center;fontSize=12;image=img/lib/mscae/Cloud_Service.svg;" parent="1" vertex="1">
          <mxGeometry x="125" y="938" width="50" height="42" as="geometry" />
        </mxCell>
        <mxCell id="Dm5knrUofMF7wtEDtV-R-1" value="AI Image&lt;br&gt;Analysis Service" style="image;sketch=0;aspect=fixed;html=1;points=[];align=center;fontSize=12;image=img/lib/mscae/Cloud_Service.svg;" parent="1" vertex="1">
          <mxGeometry x="125" y="750" width="50" height="42" as="geometry" />
        </mxCell>
      </root>
    </mxGraphModel>
  </diagram>
  <diagram name="search property" id="4BHvYEgCLGeQkOeolfoG">
    <mxGraphModel dx="1666" dy="785" grid="1" gridSize="10" guides="1" tooltips="1" connect="1" arrows="1" fold="1" page="1" pageScale="1" pageWidth="827" pageHeight="1169" math="0" shadow="0">
      <root>
        <mxCell id="0" />
        <mxCell id="1" parent="0" />
        <mxCell id="abfQ2oCoB_8d-9mrjrHR-6" style="edgeStyle=orthogonalEdgeStyle;rounded=0;orthogonalLoop=1;jettySize=auto;html=1;" edge="1" parent="1" source="sSime9qzy4eavTNBbaXQ-13" target="abfQ2oCoB_8d-9mrjrHR-1">
          <mxGeometry relative="1" as="geometry" />
        </mxCell>
        <mxCell id="abfQ2oCoB_8d-9mrjrHR-7" style="edgeStyle=orthogonalEdgeStyle;rounded=0;orthogonalLoop=1;jettySize=auto;html=1;" edge="1" parent="1" source="sSime9qzy4eavTNBbaXQ-13" target="abfQ2oCoB_8d-9mrjrHR-2">
          <mxGeometry relative="1" as="geometry" />
        </mxCell>
        <mxCell id="abfQ2oCoB_8d-9mrjrHR-8" style="edgeStyle=orthogonalEdgeStyle;rounded=0;orthogonalLoop=1;jettySize=auto;html=1;" edge="1" parent="1" source="sSime9qzy4eavTNBbaXQ-13" target="zsL3Dnd2-GXYHZYfqNPw-2">
          <mxGeometry relative="1" as="geometry" />
        </mxCell>
        <mxCell id="sSime9qzy4eavTNBbaXQ-13" value="Buyer/&lt;br&gt;Renter" style="sketch=0;aspect=fixed;pointerEvents=1;shadow=0;dashed=0;html=1;strokeColor=none;labelPosition=center;verticalLabelPosition=bottom;verticalAlign=top;align=center;fillColor=#00188D;shape=mxgraph.azure.laptop" vertex="1" parent="1">
          <mxGeometry x="304" y="137" width="50" height="30" as="geometry" />
        </mxCell>
        <mxCell id="UrpVFhDAxU7JcoKZ0HAC-2" style="edgeStyle=orthogonalEdgeStyle;rounded=0;orthogonalLoop=1;jettySize=auto;html=1;" edge="1" parent="1" source="zsL3Dnd2-GXYHZYfqNPw-1" target="UrpVFhDAxU7JcoKZ0HAC-1">
          <mxGeometry relative="1" as="geometry" />
        </mxCell>
        <mxCell id="GJ6jKN87m-i0rrffg3H5-2" style="edgeStyle=orthogonalEdgeStyle;rounded=0;orthogonalLoop=1;jettySize=auto;html=1;" edge="1" parent="1" source="zsL3Dnd2-GXYHZYfqNPw-1" target="GJ6jKN87m-i0rrffg3H5-1">
          <mxGeometry relative="1" as="geometry" />
        </mxCell>
        <mxCell id="GJ6jKN87m-i0rrffg3H5-5" style="rounded=0;orthogonalLoop=1;jettySize=auto;html=1;" edge="1" parent="1" source="zsL3Dnd2-GXYHZYfqNPw-1" target="GJ6jKN87m-i0rrffg3H5-4">
          <mxGeometry relative="1" as="geometry" />
        </mxCell>
        <mxCell id="zsL3Dnd2-GXYHZYfqNPw-1" value="Web Servers" style="sketch=0;aspect=fixed;pointerEvents=1;shadow=0;dashed=0;html=1;strokeColor=none;labelPosition=center;verticalLabelPosition=bottom;verticalAlign=top;align=center;fillColor=#00188D;shape=mxgraph.mscae.enterprise.cluster_server" vertex="1" parent="1">
          <mxGeometry x="309" y="441" width="40" height="50" as="geometry" />
        </mxCell>
        <mxCell id="g71RT2TsE_c13WxSntCe-4" style="edgeStyle=orthogonalEdgeStyle;rounded=0;orthogonalLoop=1;jettySize=auto;html=1;" edge="1" parent="1" source="zsL3Dnd2-GXYHZYfqNPw-2" target="zsL3Dnd2-GXYHZYfqNPw-1">
          <mxGeometry relative="1" as="geometry" />
        </mxCell>
        <mxCell id="zsL3Dnd2-GXYHZYfqNPw-2" value="Load Balancer" style="sketch=0;outlineConnect=0;fontColor=#232F3E;gradientColor=none;strokeColor=#ffffff;fillColor=#232F3E;dashed=0;verticalLabelPosition=middle;verticalAlign=bottom;align=center;html=1;whiteSpace=wrap;fontSize=10;fontStyle=1;spacing=3;shape=mxgraph.aws4.productIcon;prIcon=mxgraph.aws4.application_load_balancer;" vertex="1" parent="1">
          <mxGeometry x="289" y="261" width="80" height="110" as="geometry" />
        </mxCell>
        <mxCell id="zsL3Dnd2-GXYHZYfqNPw-3" value="Property&lt;br&gt;Databases" style="sketch=0;shadow=0;dashed=0;html=1;strokeColor=none;fillColor=#505050;labelPosition=center;verticalLabelPosition=bottom;verticalAlign=top;outlineConnect=0;align=center;shape=mxgraph.office.databases.database_availability_group;" vertex="1" parent="1">
          <mxGeometry x="699" y="437" width="59" height="59" as="geometry" />
        </mxCell>
        <mxCell id="abfQ2oCoB_8d-9mrjrHR-1" value="CDN" style="ellipse;shape=cloud;whiteSpace=wrap;html=1;align=center;" vertex="1" parent="1">
          <mxGeometry x="69" y="122" width="100" height="60" as="geometry" />
        </mxCell>
        <mxCell id="abfQ2oCoB_8d-9mrjrHR-2" value="" style="image;aspect=fixed;html=1;points=[];align=center;fontSize=12;image=img/lib/azure2/networking/DNS_Zones.svg;" vertex="1" parent="1">
          <mxGeometry x="509" y="120" width="64" height="64" as="geometry" />
        </mxCell>
        <mxCell id="UrpVFhDAxU7JcoKZ0HAC-1" value="Google Maps&lt;br&gt;Service" style="image;sketch=0;aspect=fixed;html=1;points=[];align=center;fontSize=12;image=img/lib/mscae/Cloud_Service.svg;" vertex="1" parent="1">
          <mxGeometry x="94" y="445" width="50" height="42" as="geometry" />
        </mxCell>
        <mxCell id="GJ6jKN87m-i0rrffg3H5-3" style="edgeStyle=orthogonalEdgeStyle;rounded=0;orthogonalLoop=1;jettySize=auto;html=1;" edge="1" parent="1" source="GJ6jKN87m-i0rrffg3H5-1" target="zsL3Dnd2-GXYHZYfqNPw-3">
          <mxGeometry relative="1" as="geometry" />
        </mxCell>
        <mxCell id="GJ6jKN87m-i0rrffg3H5-1" value="Property&lt;br&gt;Cache&lt;br&gt;Servers" style="sketch=0;outlineConnect=0;fontColor=#232F3E;gradientColor=none;strokeColor=#232F3E;fillColor=#ffffff;dashed=0;verticalLabelPosition=bottom;verticalAlign=top;align=center;html=1;fontSize=12;fontStyle=0;aspect=fixed;shape=mxgraph.aws4.resourceIcon;resIcon=mxgraph.aws4.cache_node;" vertex="1" parent="1">
          <mxGeometry x="511" y="436" width="60" height="60" as="geometry" />
        </mxCell>
        <mxCell id="GJ6jKN87m-i0rrffg3H5-7" style="edgeStyle=orthogonalEdgeStyle;rounded=0;orthogonalLoop=1;jettySize=auto;html=1;" edge="1" parent="1" source="GJ6jKN87m-i0rrffg3H5-4" target="GJ6jKN87m-i0rrffg3H5-6">
          <mxGeometry relative="1" as="geometry" />
        </mxCell>
        <mxCell id="GJ6jKN87m-i0rrffg3H5-4" value="Agent&lt;br&gt;Cache&lt;br&gt;Servers" style="sketch=0;outlineConnect=0;fontColor=#232F3E;gradientColor=none;strokeColor=#232F3E;fillColor=#ffffff;dashed=0;verticalLabelPosition=bottom;verticalAlign=top;align=center;html=1;fontSize=12;fontStyle=0;aspect=fixed;shape=mxgraph.aws4.resourceIcon;resIcon=mxgraph.aws4.cache_node;" vertex="1" parent="1">
          <mxGeometry x="511" y="596" width="60" height="60" as="geometry" />
        </mxCell>
        <mxCell id="GJ6jKN87m-i0rrffg3H5-6" value="Agent&lt;br&gt;Databases" style="sketch=0;shadow=0;dashed=0;html=1;strokeColor=none;fillColor=#505050;labelPosition=center;verticalLabelPosition=bottom;verticalAlign=top;outlineConnect=0;align=center;shape=mxgraph.office.databases.database_availability_group;" vertex="1" parent="1">
          <mxGeometry x="699" y="596" width="59" height="59" as="geometry" />
        </mxCell>
      </root>
    </mxGraphModel>
  </diagram>
</mxfile>
